<svg id="cyber" xmlns="http://www.w3.org/2000/svg" viewBox="0 0 233.45 217.14"><defs><style>.cls-1{fill:#dae7ee;}.cls-2{fill:#244e6f;}.cls-3{fill:#fff;}.cls-4{fill:#dae9ef;}.cls-5{fill:#bee2ce;}.cls-6{fill:none;stroke:#bee2ce;stroke-linecap:round;stroke-linejoin:round;stroke-width:4px;}</style></defs><title>cybercat</title><g id="cat-head"><path class="cls-1" d="M27.63,122.47s-12.69-84.9,5.71-91.88,60.9,27.56,60.9,27.56"/><path class="cls-1" d="M134,57.49s42.75-43.38,58.61-28.15,12.63,68.51,4.73,95.15"/><path class="cls-2" d="M150.62,61.53s29.8-23.89,34-18.72,4.93,54.44,4.93,54.44S180.67,74.34,150.62,61.53Z"/><path class="cls-2" d="M36.08,94.79S33.86,43.31,41,41.34,76.38,62.56,76.38,62.56,47.66,72.37,37.31,94.79"/><ellipse class="cls-3" cx="112.72" cy="130.24" rx="84.62" ry="78.25"/><ellipse class="cls-4" cx="112.72" cy="130.76" rx="69.49" ry="55.29"/><ellipse class="cls-2" cx="112.72" cy="138.47" rx="69.49" ry="52.55"/></g><ellipse class="cls-5" cx="88.19" cy="131.47" rx="7.94" ry="12.16"/><ellipse class="cls-5" cx="134" cy="131.47" rx="7.94" ry="12.16"/><path class="cls-6" d="M96.11,158.24s9.37,13.29,16.61,0"/><path class="cls-6" d="M112.72,158.24s9.36,13.29,16.61,0"/></svg>